<?xml version="1.0" encoding="UTF-8" standalone="no"?>
<!-- Created with Inkscape (http://www.inkscape.org/) -->

<svg
   width="133.99101mm"
   height="133.99101mm"
   viewBox="0 0 133.99101 133.99101"
   version="1.1"
   id="svg5"
   xml:space="preserve"
   sodipodi:docname="logo.svg"
   inkscape:version="1.2.2 (732a01da63, 2022-12-09)"
   inkscape:export-filename="logo.png"
   inkscape:export-xdpi="97.057259"
   inkscape:export-ydpi="97.057259"
   xmlns:inkscape="http://www.inkscape.org/namespaces/inkscape"
   xmlns:sodipodi="http://sodipodi.sourceforge.net/DTD/sodipodi-0.dtd"
   xmlns="http://www.w3.org/2000/svg"
   xmlns:svg="http://www.w3.org/2000/svg"><sodipodi:namedview
     id="namedview7"
     pagecolor="#ffffff"
     bordercolor="#000000"
     borderopacity="0.25"
     inkscape:showpageshadow="2"
     inkscape:pageopacity="0.0"
     inkscape:pagecheckerboard="0"
     inkscape:deskcolor="#d1d1d1"
     inkscape:document-units="mm"
     showgrid="false"
     inkscape:zoom="0.58529041"
     inkscape:cx="99.950382"
     inkscape:cy="205.02642"
     inkscape:window-width="1600"
     inkscape:window-height="837"
     inkscape:window-x="1358"
     inkscape:window-y="-8"
     inkscape:window-maximized="1"
     inkscape:current-layer="layer1" /><defs
     id="defs2"><clipPath
       clipPathUnits="userSpaceOnUse"
       id="clipPath11514"><path
         d="m 29.92578,77.077927 5.131109,10.15542 8.501846,-4.222768 8.487482,-4.179102 7.368974,6.43871 7.368968,6.438701 -4.05996,57.996572 c -2.235832,31.90689 -4.074006,58.11296 -4.058719,58.28739 2.36e-4,0.14541 6.166882,-2.86086 13.69621,-6.70161 l 13.724323,-6.93433 2.41572,-23.69326 c 4.453287,-43.9541 5.459992,-53.49561 5.6637,-53.45286 0.102473,0.0559 12.886187,11.59128 28.385317,25.68673 15.4843,14.06636 28.25353,25.49827 28.39852,25.4249 0.66675,-0.48253 33.4653,-31.73263 33.58053,-32.00941 0.0862,-0.26195 -16.18044,-17.10195 -16.79226,-17.37567 -0.10254,-0.0559 -3.59152,3.34437 -7.81925,7.52013 -4.21304,4.20483 -7.71726,7.57793 -7.77551,7.53459 -0.0727,-0.008 -21.08772,-18.957 -46.65631,-42.096728 L 58.932159,49.856446 41.856107,58.374994 24.794699,66.922552 Z"
         id="path11516"
         style="stroke-width:0.325088" /></clipPath></defs><g
     inkscape:label="Capa 1"
     inkscape:groupmode="layer"
     id="layer1"
     transform="translate(-33.838002,-60.049696)"><rect
       style="fill:#249eeb;fill-opacity:1;stroke:none;stroke-width:1.47596;stroke-linecap:round;stroke-linejoin:round;stroke-miterlimit:10"
       id="rect234"
       width="133.99071"
       height="133.99071"
       x="33.83831"
       y="60.049694"
       ry="9.7357235"
       inkscape:label="rect234" /><rect
       id="_Transparent_Rectangle_"
       data-name="&lt;Transparent Rectangle&gt;"
       class="cls-2"
       width="159.77805"
       height="167.17821"
       style="fill:none;stroke-width:5.10737"
       x="-60.768616"
       y="69.382706"
       transform="matrix(0.86464332,-0.50238624,0.49761754,0.86739656,0,0)" /><g
       style="fill:#ffffff;fill-opacity:1"
       id="g1786"
       transform="matrix(1.0990961,-0.68132542,0.6345634,1.1800903,16.309207,104.8808)"><g
         id="g1777"
         style="fill:#ffffff;fill-opacity:1"
         inkscape:export-filename="..\..\..\..\g1777.png"
         inkscape:export-xdpi="96"
         inkscape:export-ydpi="96">
	<path
   d="M 34.07,78.892 31.447,76.737 C 28.383,74.224 18.391,64.759 18.391,48.441 c 0,-17.932 11.818,-29.52 30.112,-29.52 17.839,0 28.922,10.948 28.922,28.573 0,16.471 -9.248,25.965 -13.226,29.284 l -2.571,2.149 V 89.941 H 94.501 V 75.582 H 83.936 C 89.145,67.217 91.784,57.783 91.784,47.494 91.784,21.814 74.391,4.56 48.505,4.56 22.325,4.561 4.041,22.606 4.041,48.44 c 0,9.521 2.705,19.052 7.663,27.142 H 0 v 14.359 h 34.071 z"
   id="path1775"
   style="fill:#ffffff;fill-opacity:1" />
</g></g></g></svg>
